<?xml version="1.0" standalone="no"?>
<!DOCTYPE svg PUBLIC "-//W3C//DTD SVG 20010904//EN"
 "http://www.w3.org/TR/2001/REC-SVG-20010904/DTD/svg10.dtd">
<svg version="1.0" xmlns="http://www.w3.org/2000/svg"
 width="1136.000000pt" height="1136.000000pt" viewBox="0 0 1136.000000 1136.000000"
 preserveAspectRatio="xMidYMid meet">
<metadata>
Created by potrace 1.14, written by Peter Selinger 2001-2017
</metadata>
<g transform="translate(0.000000,1136.000000) scale(0.100000,-0.100000)"
fill="#000000" stroke="none">
<path d="M6831 8848 c-5 -18 -22 -71 -36 -118 -15 -47 -29 -94 -31 -105 -2
-11 -8 -31 -13 -45 -10 -25 -72 -226 -75 -245 -2 -5 -17 -57 -35 -114 -18 -57
-34 -111 -36 -120 -2 -9 -20 -68 -40 -131 -21 -63 -41 -128 -45 -145 -5 -16
-13 -46 -20 -65 -6 -19 -13 -46 -16 -59 -3 -13 -10 -34 -16 -45 -6 -12 -11
-22 -10 -23 1 -2 0 -8 -3 -15 -15 -49 -26 -88 -30 -104 -2 -10 -43 -145 -90
-299 -48 -154 -97 -316 -110 -360 -13 -44 -43 -141 -66 -215 -23 -74 -42 -139
-43 -145 -1 -5 -17 -57 -35 -115 -18 -58 -48 -157 -67 -220 -19 -63 -41 -133
-49 -155 -8 -22 -16 -51 -19 -65 -3 -14 -17 -61 -31 -105 -15 -44 -32 -100
-40 -125 -7 -25 -27 -92 -44 -150 -18 -58 -45 -148 -61 -200 -15 -52 -47 -156
-70 -230 -22 -74 -54 -178 -70 -230 -16 -52 -50 -162 -75 -245 -26 -82 -48
-157 -50 -165 -2 -8 -31 -105 -65 -215 -34 -110 -68 -220 -75 -245 -57 -195
-79 -253 -82 -212 0 9 -3 26 -6 37 -3 11 -24 92 -47 180 -23 88 -43 167 -45
175 -2 8 -13 53 -25 100 -12 47 -23 92 -25 100 -2 8 -13 50 -25 93 -12 43 -24
90 -26 105 -3 15 -11 47 -19 72 -8 25 -16 56 -19 70 -2 14 -7 32 -10 40 -3 8
-8 26 -10 40 -3 14 -12 52 -21 85 -19 68 -63 240 -70 270 -10 45 -16 65 -45
175 -17 63 -33 126 -36 140 -3 14 -8 34 -11 45 -4 11 -8 25 -9 30 -1 6 -19 75
-39 155 -20 80 -38 152 -40 160 -2 8 -11 42 -20 75 -9 33 -21 78 -26 100 -12
50 -17 70 -19 70 -2 0 -8 26 -15 60 -5 28 -64 253 -75 290 -5 17 -12 41 -14
55 -3 14 -17 70 -31 125 -15 55 -28 107 -30 115 -1 8 -10 40 -19 70 -8 30 -17
66 -20 80 -3 14 -24 97 -46 185 -23 88 -44 171 -47 184 -2 14 -7 29 -10 35 -4
5 -10 27 -15 48 -10 47 -23 100 -38 153 -6 22 -13 49 -15 60 -3 11 -20 80 -39
153 -19 72 -32 132 -29 132 3 0 1 6 -5 13 -6 7 -13 26 -16 42 -3 17 -8 40 -11
53 -5 24 -5 21 -36 137 -11 44 -22 85 -23 90 -1 6 -5 19 -9 30 -3 11 -8 31
-11 45 -4 19 -88 345 -110 425 -1 6 -8 35 -16 67 -10 42 -17 56 -29 53 -9 -2
-54 -13 -101 -25 -47 -12 -89 -23 -95 -25 -5 -1 -31 -7 -56 -14 l-46 -13 19
-66 c11 -37 21 -76 22 -88 2 -11 6 -25 9 -31 3 -5 8 -20 11 -34 2 -13 16 -71
31 -129 15 -58 29 -112 31 -120 2 -8 11 -42 20 -75 9 -33 18 -68 20 -77 2 -10
6 -26 8 -35 2 -10 14 -54 25 -98 12 -44 24 -91 27 -105 2 -14 9 -38 14 -55 5
-16 34 -127 64 -245 30 -118 62 -240 70 -272 8 -31 17 -67 20 -80 3 -12 21
-84 41 -158 19 -74 37 -144 40 -155 5 -30 82 -328 89 -345 3 -8 8 -26 10 -40
3 -14 17 -70 31 -125 15 -55 28 -107 30 -115 2 -8 22 -87 45 -175 23 -88 43
-171 46 -185 3 -14 8 -34 11 -45 4 -11 8 -23 9 -27 1 -5 2 -9 4 -10 2 -3 8
-30 15 -63 5 -28 64 -253 75 -290 5 -16 11 -41 14 -55 2 -14 16 -69 31 -123
14 -53 28 -105 30 -115 7 -30 92 -361 130 -507 21 -77 41 -156 45 -175 5 -19
27 -107 50 -195 24 -88 46 -176 51 -195 4 -19 13 -53 19 -75 12 -46 12 -44 40
-155 29 -117 25 -101 87 -340 30 -118 57 -222 58 -230 2 -8 4 -15 5 -15 3 0
11 -39 13 -62 1 -13 6 -23 11 -23 4 0 6 -6 3 -14 -3 -8 -3 -17 1 -20 3 -4 7
-12 8 -19 5 -25 12 -54 29 -117 9 -36 19 -73 20 -83 6 -27 14 -36 33 -36 9 0
49 -1 89 -2 39 -1 76 2 82 5 8 5 27 56 36 96 0 3 11 39 24 80 13 41 24 80 25
85 1 6 5 15 8 21 4 6 9 21 12 35 5 27 83 286 93 309 3 8 7 22 9 30 2 8 26 89
55 180 28 91 52 170 53 175 1 6 11 37 21 70 10 33 20 65 21 70 3 11 25 83 69
225 14 47 39 128 54 180 16 52 48 156 71 230 23 74 43 142 45 150 2 8 10 35
18 60 8 25 24 77 35 115 25 82 94 308 127 415 12 41 33 109 45 150 25 84 61
204 90 295 10 33 32 105 49 160 17 55 56 181 86 280 31 99 57 187 59 195 2 9
30 99 61 200 31 102 58 194 61 205 2 11 8 31 13 45 12 30 71 225 76 249 2 9 8
28 14 44 6 15 13 38 16 50 2 12 36 126 76 252 39 127 87 285 106 353 33 112
52 149 54 105 0 -10 2 -25 4 -33 6 -25 122 -515 130 -550 2 -8 20 -82 40 -165
19 -82 44 -188 55 -235 57 -244 80 -338 89 -361 5 -15 8 -29 5 -32 -2 -2 0
-15 5 -29 5 -14 12 -38 15 -54 11 -57 26 -122 81 -349 31 -126 58 -239 60
-250 4 -18 30 -133 41 -180 12 -48 17 -71 19 -90 2 -11 4 -20 5 -20 1 0 3 -7
5 -15 2 -8 10 -42 19 -75 8 -33 18 -75 21 -94 3 -19 8 -38 11 -42 2 -4 9 -29
14 -56 19 -89 21 -98 26 -115 3 -9 6 -25 8 -35 2 -10 9 -36 14 -58 6 -22 13
-51 16 -65 16 -73 27 -119 60 -260 21 -85 39 -164 42 -175 2 -11 20 -85 39
-165 20 -80 38 -156 40 -170 2 -14 18 -81 35 -150 17 -69 33 -136 36 -150 3
-14 23 -98 44 -187 22 -89 42 -173 44 -185 3 -13 9 -38 15 -56 5 -18 10 -35
10 -37 0 -3 2 -18 5 -33 4 -15 8 -36 10 -47 3 -11 18 -76 35 -145 38 -161 80
-339 85 -365 2 -11 9 -32 14 -46 6 -15 9 -29 6 -31 -2 -3 2 -5 9 -6 29 -2 143
-4 152 -2 6 1 14 2 19 1 27 -5 134 -3 143 2 6 4 15 26 19 50 4 23 8 44 9 47 1
4 14 63 20 90 1 3 7 30 13 60 7 30 14 64 16 75 3 11 21 97 41 190 20 94 39
179 41 190 4 23 12 61 19 90 4 17 46 207 60 273 3 12 7 34 11 49 3 15 21 99
40 187 20 89 38 172 40 186 3 14 11 53 19 86 8 34 16 73 19 85 2 13 31 150 65
304 33 154 62 291 65 305 3 14 10 43 15 65 6 22 12 54 15 70 3 17 8 41 11 55
3 14 8 36 11 50 4 21 34 154 50 225 2 11 6 31 9 45 2 14 14 68 25 120 12 52
23 106 26 120 4 21 17 76 29 130 5 23 55 252 59 275 2 11 9 40 15 65 5 25 12
56 15 70 2 14 10 48 16 75 6 28 14 61 16 75 3 14 7 32 9 40 2 8 7 30 10 48 3
18 12 61 21 95 8 34 17 73 19 87 6 36 13 69 19 88 3 9 8 33 11 52 3 19 10 52
16 73 6 21 12 50 14 65 2 15 20 99 40 187 40 181 40 182 54 250 6 28 12 59 15
70 45 201 89 404 89 418 1 16 17 25 17 10 1 -10 16 -78 30 -133 16 -65 28
-111 44 -180 9 -36 20 -82 26 -102 25 -93 32 -119 56 -218 14 -58 29 -121 34
-140 10 -39 21 -83 44 -180 9 -36 20 -82 26 -102 5 -21 14 -55 19 -75 5 -21
14 -56 20 -78 14 -52 121 -483 127 -512 2 -12 9 -34 14 -48 5 -14 9 -29 9 -33
-1 -4 0 -9 1 -12 2 -6 6 -24 14 -56 2 -11 9 -41 16 -65 13 -48 21 -81 45 -179
25 -98 46 -183 51 -200 38 -141 56 -208 59 -222 2 -10 16 -62 30 -115 15 -54
28 -105 30 -113 2 -8 13 -51 25 -95 12 -44 26 -96 30 -115 4 -19 15 -60 23
-90 14 -51 74 -276 82 -310 2 -8 11 -42 20 -75 9 -33 19 -69 21 -80 2 -11 18
-69 34 -130 17 -60 33 -119 35 -130 2 -11 18 -72 35 -135 17 -63 32 -122 34
-130 3 -8 23 -87 46 -175 23 -88 44 -171 47 -184 2 -13 8 -32 14 -43 5 -10 7
-18 5 -18 -3 0 -1 -12 5 -27 6 -16 13 -39 15 -52 3 -14 14 -57 25 -97 11 -40
22 -81 24 -91 2 -10 15 -60 29 -110 14 -51 28 -103 30 -115 3 -13 14 -55 25
-94 11 -39 23 -85 26 -104 9 -49 24 -72 43 -66 15 5 125 35 249 67 40 11 41
12 31 38 -5 14 -11 35 -13 46 -2 11 -13 56 -25 100 -12 44 -24 87 -25 95 -2 8
-20 76 -40 150 -20 74 -38 142 -40 150 -2 8 -13 51 -25 95 -12 44 -26 96 -30
115 -4 19 -22 87 -39 150 -18 63 -34 126 -37 140 -2 14 -9 39 -15 56 -5 17
-11 40 -13 50 -2 10 -11 44 -20 74 -8 30 -27 100 -41 155 -15 55 -37 141 -50
190 -13 50 -37 142 -54 205 -16 63 -41 160 -56 215 -42 158 -66 247 -75 285
-5 19 -27 105 -50 190 -38 143 -72 272 -122 460 -28 108 -58 228 -68 278 -6
24 -12 47 -14 51 -3 4 -7 19 -10 34 -4 15 -8 39 -12 54 -3 15 -7 30 -10 34 -2
4 -9 29 -15 56 -5 26 -14 64 -19 83 -5 19 -14 53 -19 75 -5 22 -19 78 -31 125
-11 47 -23 96 -26 110 -2 14 -9 36 -13 50 -5 14 -19 68 -31 120 -12 52 -25
109 -30 125 -11 38 -30 112 -36 137 -2 10 -6 26 -8 36 -2 10 -9 39 -16 63 -14
53 -24 92 -45 179 -22 90 -37 150 -67 265 -5 22 -12 51 -14 65 -3 14 -9 36
-14 50 -4 14 -14 50 -20 80 -7 30 -16 69 -20 85 -12 41 -31 114 -36 137 -8 36
-13 56 -69 278 -31 124 -59 239 -62 255 -3 17 -9 38 -14 47 -5 9 -9 26 -9 38
0 20 -3 20 -167 18 l-167 -3 -18 -75 c-9 -41 -19 -88 -22 -105 -3 -16 -15 -73
-27 -125 -11 -52 -23 -106 -25 -120 -3 -14 -9 -41 -14 -60 -7 -29 -30 -132
-55 -255 -3 -11 -16 -74 -31 -140 -14 -66 -27 -129 -30 -140 -2 -11 -6 -30 -9
-42 -11 -48 -31 -145 -39 -188 -2 -11 -9 -38 -15 -60 -6 -22 -13 -58 -17 -80
-3 -22 -8 -43 -10 -46 -2 -3 -5 -19 -8 -35 -3 -16 -40 -186 -82 -379 -41 -192
-78 -361 -80 -375 -2 -14 -7 -37 -10 -52 -3 -15 -5 -30 -5 -33 0 -2 -5 -19
-10 -37 -11 -37 -15 -52 -29 -123 -5 -27 -12 -61 -15 -75 -3 -14 -8 -36 -11
-50 -2 -14 -9 -47 -16 -75 -6 -27 -13 -59 -14 -70 -1 -11 -3 -20 -4 -20 -1 0
-3 -7 -5 -15 -7 -29 -46 -215 -50 -235 -2 -11 -11 -49 -19 -85 -9 -36 -18 -81
-21 -100 -3 -19 -8 -41 -11 -49 -2 -7 -11 -48 -20 -90 -21 -99 -18 -88 -49
-226 -15 -66 -28 -129 -31 -140 -4 -20 -51 -242 -60 -280 -2 -11 -7 -33 -10
-49 -2 -16 -6 -32 -8 -35 -2 -3 -7 -24 -10 -46 -4 -22 -11 -57 -17 -78 -6 -21
-12 -50 -14 -65 -3 -15 -23 -110 -45 -212 -23 -102 -43 -196 -46 -210 -5 -27
-16 -79 -20 -95 -2 -5 -6 -23 -9 -40 -5 -29 -52 -238 -62 -280 -2 -11 -6 -29
-7 -40 -2 -11 -4 -23 -5 -27 -2 -13 -18 -9 -18 5 0 10 -67 294 -193 822 -18
72 -33 139 -35 150 -2 11 -4 20 -5 20 -1 0 -3 11 -6 25 -2 14 -11 52 -20 85
-9 33 -18 71 -20 85 -3 14 -14 63 -25 110 -12 47 -23 93 -25 103 -2 9 -6 25
-8 35 -2 9 -14 59 -26 111 -11 52 -23 97 -25 101 -2 3 -6 17 -9 31 -3 13 -10
47 -16 74 -5 28 -13 61 -15 75 -3 14 -8 31 -10 38 -5 12 -52 211 -60 252 -2 8
-8 33 -13 55 -6 22 -13 51 -16 65 -2 14 -12 54 -21 90 -9 36 -19 76 -22 90 -2
14 -22 99 -45 190 -22 91 -41 174 -43 185 -4 22 -50 217 -85 360 -13 50 -24
99 -25 110 -2 11 -15 66 -29 121 -14 56 -28 112 -30 125 -3 13 -5 24 -6 24 -1
0 -3 7 -5 15 -5 26 -28 135 -31 145 -2 6 -5 20 -8 33 -3 13 -7 31 -10 40 -3 9
-8 28 -10 42 -3 14 -12 52 -21 85 -8 33 -17 69 -19 80 -2 11 -21 90 -41 175
-20 85 -38 162 -40 170 -2 8 -13 56 -24 105 -12 50 -24 101 -27 115 -3 14 -10
43 -16 65 -9 37 -12 49 -23 100 -9 38 -15 65 -19 83 -21 82 -86 359 -86 365 0
4 -56 7 -124 7 l-124 0 -11 -32z"/>
<path d="M895 8792 c-3 -3 -123 -37 -170 -47 -91 -21 -89 -15 -55 -135 18 -64
27 -99 44 -165 2 -5 6 -17 9 -25 3 -8 11 -35 17 -60 6 -25 15 -56 19 -70 5
-14 24 -79 41 -145 36 -131 102 -371 125 -450 49 -174 85 -306 88 -322 2 -10
7 -25 10 -33 5 -13 49 -170 62 -220 2 -8 20 -73 40 -145 20 -71 43 -155 51
-185 8 -30 22 -78 30 -106 8 -28 17 -60 19 -70 2 -11 20 -75 40 -144 19 -69
37 -134 40 -145 3 -11 16 -60 30 -110 14 -49 35 -124 46 -165 24 -88 58 -209
64 -230 2 -8 15 -55 29 -105 14 -49 48 -171 76 -270 27 -99 59 -211 69 -250
11 -38 28 -101 39 -140 11 -38 27 -101 37 -140 10 -38 21 -79 25 -90 4 -11 13
-40 20 -65 7 -25 18 -65 25 -90 15 -52 48 -175 66 -240 7 -25 14 -49 15 -55 2
-5 14 -50 28 -100 14 -49 39 -139 56 -200 17 -60 33 -117 34 -125 2 -8 17 -62
34 -120 36 -128 101 -361 107 -386 3 -11 19 -68 36 -129 17 -60 32 -117 34
-125 2 -8 16 -55 30 -105 15 -49 27 -95 29 -102 4 -23 11 -22 101 3 50 14 115
32 145 41 71 19 71 19 60 49 -5 13 -12 35 -14 47 -2 12 -14 56 -26 97 -21 74
-48 171 -55 200 -4 13 -40 146 -49 175 -19 68 -29 102 -32 115 -5 26 -36 134
-42 150 -3 8 -6 20 -7 25 -2 6 -28 102 -60 215 -80 289 -86 313 -90 330 -2 8
-4 15 -5 15 -1 0 -3 7 -5 15 -5 21 -13 49 -24 90 -16 56 -31 114 -36 130 -2 8
-4 15 -5 15 -1 0 -3 7 -5 15 -1 8 -8 35 -16 60 -7 25 -13 50 -15 55 -1 6 -14
53 -28 105 -15 52 -33 118 -41 145 -25 92 -87 309 -101 360 -8 28 -17 61 -20
75 -3 14 -10 41 -16 60 -7 19 -13 40 -14 45 -3 17 -25 99 -35 130 -16 53 -71
249 -75 270 -2 11 -13 49 -23 85 -18 57 -39 134 -47 165 -1 6 -14 53 -29 105
-14 52 -35 127 -46 165 -30 110 -53 194 -119 430 -84 300 -92 329 -94 340 -1
6 -5 16 -9 23 -5 6 -6 12 -3 12 3 0 1 12 -5 28 -6 15 -12 34 -14 42 -5 24 -26
101 -40 150 -8 25 -30 104 -49 175 -41 147 -44 157 -87 310 -17 61 -33 120
-35 133 -3 13 -11 42 -19 66 -8 23 -16 51 -18 62 -2 10 -6 26 -9 34 -6 16 -37
124 -42 150 -7 31 -28 106 -37 135 -5 17 -18 63 -29 102 -19 67 -23 73 -46 71
-14 -2 -27 -4 -29 -6z"/>
<path d="M2450 8779 c-36 -11 -76 -22 -89 -25 -13 -3 -34 -10 -45 -16 -12 -6
-22 -11 -23 -10 -7 5 -29 1 -40 -6 -10 -6 -8 -24 8 -78 11 -38 22 -78 24 -88
3 -10 9 -33 15 -51 6 -18 13 -41 15 -51 6 -27 18 -69 70 -256 8 -29 21 -78 30
-108 9 -30 18 -62 20 -70 2 -8 15 -58 30 -110 14 -52 27 -99 29 -105 1 -5 10
-37 20 -70 10 -33 20 -68 22 -79 2 -10 10 -42 18 -70 8 -28 22 -76 30 -106 8
-30 34 -120 56 -200 22 -80 42 -152 44 -160 2 -8 25 -88 50 -177 25 -89 50
-179 55 -200 5 -21 17 -63 26 -93 9 -30 17 -62 20 -70 2 -8 17 -66 35 -129 17
-62 33 -120 36 -130 8 -33 84 -307 93 -336 5 -16 15 -50 22 -75 7 -25 13 -47
14 -50 1 -3 5 -18 9 -35 5 -16 22 -77 38 -135 17 -58 32 -112 34 -120 9 -39
50 -188 83 -305 84 -295 111 -396 111 -414 0 -11 4 -22 9 -25 5 -3 11 -18 14
-33 2 -16 12 -55 22 -88 9 -33 21 -73 25 -90 4 -16 20 -73 34 -125 15 -52 29
-102 31 -110 2 -8 16 -55 29 -105 14 -49 34 -121 45 -160 10 -38 22 -77 25
-85 3 -8 8 -26 10 -40 3 -14 20 -79 39 -145 56 -196 117 -413 120 -432 2 -10
6 -25 9 -33 3 -8 11 -33 17 -55 6 -22 22 -81 36 -131 14 -50 28 -100 30 -110
14 -55 31 -114 36 -118 4 -5 62 10 244 63 42 12 59 22 57 32 -2 8 -5 21 -7 29
-3 15 -17 67 -56 205 -11 39 -21 77 -23 85 -2 8 -23 82 -46 164 -23 81 -43
156 -45 165 -6 26 -37 135 -43 151 -3 8 -7 22 -8 30 -2 8 -20 71 -39 140 -20
69 -37 132 -39 140 -2 8 -11 42 -20 75 -9 33 -24 85 -32 115 -8 30 -22 80 -31
110 -9 30 -18 60 -19 65 -1 6 -9 37 -18 70 -10 33 -19 67 -21 75 -2 8 -4 15
-5 15 -1 0 -3 7 -5 15 -1 8 -8 35 -16 60 -7 25 -14 51 -15 58 -1 7 -12 46 -23
85 -12 40 -26 88 -31 107 -5 19 -21 76 -35 125 -27 95 -33 115 -41 153 -2 13
-11 42 -19 66 -8 23 -16 51 -18 62 -2 10 -6 26 -10 34 -3 8 -13 44 -22 80 -9
36 -25 94 -35 130 -28 93 -91 321 -96 345 -2 11 -13 49 -23 85 -18 59 -41 140
-47 165 -1 6 -12 44 -24 85 -25 89 -25 87 -35 125 -4 17 -18 68 -32 115 -13
47 -26 92 -28 100 -5 20 -26 99 -70 255 -20 72 -42 153 -50 180 -67 243 -86
312 -90 326 -2 9 -8 34 -15 55 -12 41 -98 348 -105 374 -18 67 -39 144 -52
190 -9 30 -16 56 -15 57 0 2 -4 17 -9 35 -25 82 -60 205 -65 228 -3 14 -10 41
-16 60 -7 19 -13 40 -14 45 -2 13 -59 216 -69 250 -20 64 -17 64 -115 34z"/>
<path d="M295 6785 c-147 -46 -246 -149 -285 -295 -12 -44 -8 -165 6 -205 34
-96 109 -189 186 -233 101 -57 246 -65 351 -20 58 24 177 119 177 140 0 6 6
19 14 27 31 35 55 133 52 216 -8 217 -180 383 -397 383 -35 0 -82 -6 -104 -13z"/>
<path d="M295 4865 c-148 -47 -246 -149 -285 -295 -12 -44 -8 -165 6 -205 34
-96 109 -189 186 -233 101 -57 236 -65 348 -22 90 35 186 131 220 220 35 91
35 209 0 298 -42 107 -146 202 -256 235 -61 18 -166 19 -219 2z"/>
<path d="M5265 2630 c-3 -5 -1 -10 4 -10 6 0 11 5 11 10 0 6 -2 10 -4 10 -3 0
-8 -4 -11 -10z"/>
</g>
</svg>
